<svg xmlns="http://www.w3.org/2000/svg" viewBox="0 0 24 24" width="200" height="200">
  <!-- Volume Icon -->
  <path d="M0 0h24v24H0z" fill="none"/>
  <path d="M15.5 3c-.74 0-1.41.41-1.75 1.03l-4.33 8.32H8.25C7.01 12.35 6 13.36 6 14.6s1.01 2.25 2.25 2.25h1.17l4.33 8.32c.34.62 1.01 1.03 1.75 1.03.55 0 1-.45 1-1V4c0-.55-.45-1-1-1zm4.5 9c0-2.76-2.24-5-5-5s-5 2.24-5 5 2.24 5 5 5 5-2.24 5-5z"/>

  <!-- Text -->
  <text x="0" y="20" font-family="Arial" font-size="12" fill="black">MyMusic</text>
</svg>